# Alias OBJ Model File
# Exported from SketchUp, (c) 2000-2012 Trimble Navigation Limited
# File units = millimeters

mtllib 6housesBuildings.mtl

g Mesh1 Component_1_1 Group2 Group1 Model

usemtl Color_F01
v 1316.57 1576.45 8542.56
vt 0 2.1063
vn 0 -1 -0
v 1316.57 1576.45 2356.16
vt 0 245.665
v 3711.17 1576.45 2356.16
vt -94.2756 245.665
v 3711.17 1576.45 8542.56
vt -94.2756 2.1063
f 1/1/1 2/2/1 3/3/1 4/4/1 

v 1316.57 3152.9 8542.56
vt -2.1063 62.0649
vn -1 0 -0
v 1316.57 3152.9 2356.16
vt -245.665 62.0649
vt -245.665 0
vt -2.1063 0
f 5/5/2 6/6/2 2/7/2 1/8/2 

usemtl Color_C05
vt -2.1063 41.2247
vn -0.664219 0.747538 -0
v 2513.87 4216.75 8542.56
vt -2.1063 104.282
v 2513.87 4216.75 2356.16
vt -245.665 104.282
vt -245.665 41.2247
f 5/9/3 7/10/3 8/11/3 6/12/3 

usemtl Color_F01
vt 47.1378 103.949
vn 0 0 1
vt 0 62.0649
vt 0 0
vt 94.2756 0
v 3711.17 3152.9 8542.56
vt 94.2756 62.0649
f 7/13/4 5/14/4 1/15/4 4/16/4 9/17/4 

vt 245.665 0
vn 1 0 -0
v 3711.17 3152.9 2356.16
vt 245.665 62.0649
vt 2.1063 62.0649
vt 2.1063 0
f 3/18/5 10/19/5 9/20/5 4/21/5 

vn 0 0 -1
vt -47.1378 103.949
vt -94.2756 62.0649
vt -94.2756 0
f 2/15/6 6/14/6 8/22/6 10/23/6 3/24/6 

usemtl Color_C05
vt 2.1063 33.8074
vn 0.664219 0.747538 -0
vt 2.1063 -29.2499
vt 245.665 -29.2499
vt 245.665 33.8074
f 7/25/7 9/26/7 10/27/7 8/28/7 

g Mesh2 Component1 Group2 Group1 Model

usemtl Color_F01
v 1316.57 -1.98219e-12 8542.56
v 1316.57 -6.72192e-13 2356.16
v 3711.17 -6.72192e-13 2356.16
v 3711.17 -1.98219e-12 8542.56
f 11/1/1 12/2/1 13/3/1 14/4/1 

v 1316.57 1576.45 2356.16
vt -245.665 5.15746e-14
f 1/5/2 15/6/2 12/29/2 11/8/2 

vn 0 1 -0
vt 94.2756 2.1063
v 3711.17 1576.45 2356.16
vt 94.2756 245.665
f 1/1/8 4/30/8 16/31/8 15/2/8 

f 14/16/4 4/17/4 1/14/4 11/15/4 

vt 245.665 5.15746e-14
f 13/32/5 16/19/5 4/20/5 14/21/5 

vt -94.2756 -2.7014e-14
vn 3.63436e-48 3.19901e-16 -1
vt 8.92835e-46 -2.7014e-14
vt 8.92835e-46 62.0649
f 13/33/9 12/34/9 15/35/9 16/23/9 

g Mesh3 Component_1_2 Group3 Group1 Model

v 6105.77 1576.45 -643.842
v 6105.77 1576.45 -6830.24
v 8500.37 1576.45 -6830.24
v 8500.37 1576.45 -643.842
f 17/1/1 18/2/1 19/3/1 20/4/1 

v 6105.77 3152.9 -643.842
v 6105.77 3152.9 -6830.24
f 21/5/2 22/6/2 18/7/2 17/8/2 

usemtl Color_C05
v 7303.07 4216.75 -643.842
v 7303.07 4216.75 -6830.24
f 21/9/3 23/10/3 24/11/3 22/12/3 

usemtl Color_F01
v 8500.37 3152.9 -643.842
f 23/13/4 21/14/4 17/15/4 20/16/4 25/17/4 

v 8500.37 3152.9 -6830.24
f 19/18/5 26/19/5 25/20/5 20/21/5 

f 18/15/6 22/14/6 24/22/6 26/23/6 19/24/6 

usemtl Color_C05
f 23/25/7 25/26/7 26/27/7 24/28/7 

g Mesh4 Component2 Group3 Group1 Model

usemtl Color_F01
v 6105.77 0 -643.842
v 6105.77 1.30999e-12 -6830.24
v 8500.37 1.30999e-12 -6830.24
v 8500.37 0 -643.842
f 27/1/1 28/2/1 29/3/1 30/4/1 

v 6105.77 1576.45 -6830.24
f 17/5/2 31/6/2 28/29/2 27/8/2 

v 8500.37 1576.45 -6830.24
f 17/1/8 20/30/8 32/31/8 31/2/8 

f 30/16/4 20/17/4 17/14/4 27/15/4 

f 29/32/5 32/19/5 20/20/5 30/21/5 

f 29/33/9 28/34/9 31/35/9 32/23/9 

g Mesh5 Component_1_3 Group4 Group1 Model

v 14792.2 1576.45 8542.56
v 8605.77 1576.45 8542.56
v 8605.77 1576.45 6147.96
v 14792.2 1576.45 6147.96
f 33/1/1 34/2/1 35/3/1 36/4/1 

v 14792.2 3152.9 8542.56
vn -1.11022e-16 0 1
v 8605.77 3152.9 8542.56
f 37/5/10 38/6/10 34/7/10 33/8/10 

usemtl Color_C05
vn -7.37431e-17 0.747538 0.664219
v 14792.2 4216.75 7345.26
v 8605.77 4216.75 7345.26
f 37/9/11 39/10/11 40/11/11 38/12/11 

usemtl Color_F01
vn 1 0 1.11022e-16
v 14792.2 3152.9 6147.96
f 39/13/12 37/14/12 33/15/12 36/16/12 41/17/12 

vn 1.11022e-16 0 -1
v 8605.77 3152.9 6147.96
f 35/18/13 42/19/13 41/20/13 36/21/13 

vn -1 0 -1.11022e-16
f 34/15/14 38/14/14 40/22/14 42/23/14 35/24/14 

usemtl Color_C05
vn 7.37431e-17 0.747538 -0.664219
f 39/25/15 41/26/15 42/27/15 40/28/15 

g Mesh6 Component3 Group4 Group1 Model

usemtl Color_F01
v 14792.2 -1.98219e-12 8542.56
v 8605.77 -6.72192e-13 8542.56
v 8605.77 -6.72192e-13 6147.96
v 14792.2 -1.98219e-12 6147.96
f 43/1/1 44/2/1 45/3/1 46/4/1 

v 8605.77 1576.45 8542.56
f 33/5/10 47/6/10 44/29/10 43/8/10 

v 8605.77 1576.45 6147.96
f 33/1/8 36/30/8 48/31/8 47/2/8 

f 46/16/12 36/17/12 33/14/12 43/15/12 

f 45/32/13 48/19/13 36/20/13 46/21/13 

vn -1 3.19901e-16 -1.11022e-16
f 45/33/16 44/34/16 47/35/16 48/23/16 

g Mesh7 Component_1_4 Group5 Group1 Model

v 3711.17 1576.45 8542.56
v 3711.17 1576.45 2356.16
v 6105.77 1576.45 2356.16
v 6105.77 1576.45 8542.56
f 49/1/1 50/2/1 51/3/1 52/4/1 

v 3711.17 3152.9 8542.56
v 3711.17 3152.9 2356.16
f 53/5/2 54/6/2 50/7/2 49/8/2 

usemtl Color_C05
v 4908.47 4216.75 8542.56
v 4908.47 4216.75 2356.16
f 53/9/3 55/10/3 56/11/3 54/12/3 

usemtl Color_F01
v 6105.77 3152.9 8542.56
f 55/13/4 53/14/4 49/15/4 52/16/4 57/17/4 

v 6105.77 3152.9 2356.16
f 51/18/5 58/19/5 57/20/5 52/21/5 

f 50/15/6 54/14/6 56/22/6 58/23/6 51/24/6 

usemtl Color_C05
f 55/25/7 57/26/7 58/27/7 56/28/7 

g Mesh8 Component4 Group5 Group1 Model

usemtl Color_F01
v 3711.17 2.45713e-13 8542.56
v 3711.17 1.55571e-12 2356.16
v 6105.77 1.55571e-12 2356.16
v 6105.77 2.45713e-13 8542.56
f 59/1/1 60/2/1 61/3/1 62/4/1 

v 3711.17 1576.45 2356.16
f 49/5/2 63/6/2 60/29/2 59/8/2 

v 6105.77 1576.45 2356.16
f 49/1/8 52/30/8 64/31/8 63/2/8 

f 62/16/4 52/17/4 49/14/4 59/15/4 

f 61/32/5 64/19/5 52/20/5 62/21/5 

f 61/33/9 60/34/9 63/35/9 64/23/9 

g Mesh9 Component_1_5 Group6 Group1 Model

v 3711.17 1576.45 -643.842
v 3711.17 1576.45 -6830.24
v 6105.77 1576.45 -6830.24
f 65/1/1 66/2/1 67/3/1 17/4/1 

v 3711.17 3152.9 -643.842
v 3711.17 3152.9 -6830.24
f 68/5/2 69/6/2 66/7/2 65/8/2 

usemtl Color_C05
v 4908.47 4216.75 -643.842
v 4908.47 4216.75 -6830.24
f 68/9/3 70/10/3 71/11/3 69/12/3 

usemtl Color_F01
f 70/13/4 68/14/4 65/15/4 17/16/4 21/17/4 

v 6105.77 3152.9 -6830.24
f 67/18/5 72/19/5 21/20/5 17/21/5 

f 66/15/6 69/14/6 71/22/6 72/23/6 67/24/6 

usemtl Color_C05
f 70/25/7 21/26/7 72/27/7 71/28/7 

g Mesh10 Component5 Group6 Group1 Model

usemtl Color_F01
v 3711.17 0 -643.842
v 3711.17 1.30999e-12 -6830.24
f 73/1/1 74/2/1 28/3/1 27/4/1 

v 3711.17 1576.45 -6830.24
f 65/5/2 75/6/2 74/29/2 73/8/2 

f 65/1/8 17/30/8 31/31/8 75/2/8 

f 27/16/4 17/17/4 65/14/4 73/15/4 

f 28/32/5 31/19/5 17/20/5 27/21/5 

f 28/33/9 74/34/9 75/35/9 31/23/9 

g Mesh11 Component6 Group7 Group1 Model

v 1316.57 0 -643.842
v 1316.57 1.30999e-12 -6830.24
f 76/1/1 77/2/1 74/3/1 73/4/1 

v 1316.57 1576.45 -643.842
v 1316.57 1576.45 -6830.24
f 78/5/2 79/6/2 77/29/2 76/8/2 

f 78/1/8 65/30/8 75/31/8 79/2/8 

f 73/16/4 65/17/4 78/14/4 76/15/4 

f 74/32/5 75/19/5 65/20/5 73/21/5 

f 74/33/9 77/34/9 79/35/9 75/23/9 

g Mesh12 Component_1_6 Group7 Group1 Model

v 1316.57 1576.45 -6830.24
v 3711.17 1576.45 -6830.24
f 78/1/1 80/2/1 81/3/1 65/4/1 

v 1316.57 3152.9 -643.842
v 1316.57 3152.9 -6830.24
f 82/5/2 83/6/2 80/7/2 78/8/2 

usemtl Color_C05
v 2513.87 4216.75 -643.842
v 2513.87 4216.75 -6830.24
f 82/9/3 84/10/3 85/11/3 83/12/3 

usemtl Color_F01
f 84/13/4 82/14/4 78/15/4 65/16/4 68/17/4 

v 3711.17 3152.9 -6830.24
f 81/18/5 86/19/5 68/20/5 65/21/5 

f 80/15/6 83/14/6 85/22/6 86/23/6 81/24/6 

usemtl Color_C05
f 84/25/7 68/26/7 86/27/7 85/28/7 

